<mxfile host="app.diagrams.net" modified="2023-05-07T15:40:33.184Z" agent="Mozilla/5.0 (Windows NT 10.0; Win64; x64) AppleWebKit/537.36 (KHTML, like Gecko) Chrome/112.0.0.0 Safari/537.36" etag="2uF9NPFFYl9H3ueL7JkT" version="21.2.3" type="device">
  <diagram name="Page-1" id="9tM2IG21wUiqUrihaL9M">
    <mxGraphModel dx="518" dy="255" grid="1" gridSize="10" guides="1" tooltips="1" connect="1" arrows="1" fold="1" page="1" pageScale="1" pageWidth="827" pageHeight="1169" background="#ffffff" math="0" shadow="0">
      <root>
        <mxCell id="0" />
        <mxCell id="1" parent="0" />
        <mxCell id="4mB_eWu22lH8mbVMO2Ji-12" value="tampilan menu()" style="rounded=0;whiteSpace=wrap;html=1;" vertex="1" parent="1">
          <mxGeometry x="360" y="30" width="120" height="60" as="geometry" />
        </mxCell>
        <mxCell id="4mB_eWu22lH8mbVMO2Ji-13" value="create tree()" style="rounded=0;whiteSpace=wrap;html=1;" vertex="1" parent="1">
          <mxGeometry x="440" y="160" width="120" height="60" as="geometry" />
        </mxCell>
        <mxCell id="4mB_eWu22lH8mbVMO2Ji-14" value="menu Panduan()" style="rounded=0;whiteSpace=wrap;html=1;" vertex="1" parent="1">
          <mxGeometry x="280" y="160" width="120" height="60" as="geometry" />
        </mxCell>
        <mxCell id="4mB_eWu22lH8mbVMO2Ji-16" value="" style="endArrow=classic;html=1;rounded=0;entryX=0.5;entryY=0;entryDx=0;entryDy=0;exitX=0.5;exitY=1;exitDx=0;exitDy=0;" edge="1" parent="1" source="4mB_eWu22lH8mbVMO2Ji-12" target="4mB_eWu22lH8mbVMO2Ji-14">
          <mxGeometry width="50" height="50" relative="1" as="geometry">
            <mxPoint x="450" y="180" as="sourcePoint" />
            <mxPoint x="500" y="130" as="targetPoint" />
          </mxGeometry>
        </mxCell>
        <mxCell id="4mB_eWu22lH8mbVMO2Ji-17" value="" style="endArrow=classic;html=1;rounded=0;exitX=0.014;exitY=0.872;exitDx=0;exitDy=0;exitPerimeter=0;" edge="1" parent="1" source="4mB_eWu22lH8mbVMO2Ji-18">
          <mxGeometry width="50" height="50" relative="1" as="geometry">
            <mxPoint x="360" y="120" as="sourcePoint" />
            <mxPoint x="350" y="130" as="targetPoint" />
          </mxGeometry>
        </mxCell>
        <mxCell id="4mB_eWu22lH8mbVMO2Ji-18" value="" style="ellipse;whiteSpace=wrap;html=1;aspect=fixed;fillColor=#000000;" vertex="1" parent="1">
          <mxGeometry x="360" y="110" width="10" height="10" as="geometry" />
        </mxCell>
        <mxCell id="4mB_eWu22lH8mbVMO2Ji-19" value="Menu" style="text;html=1;strokeColor=none;fillColor=none;align=center;verticalAlign=middle;whiteSpace=wrap;rounded=0;rotation=-51;fontSize=6;" vertex="1" parent="1">
          <mxGeometry x="330" y="110" width="30" height="10" as="geometry" />
        </mxCell>
        <mxCell id="4mB_eWu22lH8mbVMO2Ji-20" value="" style="endArrow=classic;html=1;rounded=0;entryX=0.5;entryY=0;entryDx=0;entryDy=0;exitX=0.5;exitY=1;exitDx=0;exitDy=0;" edge="1" parent="1" source="4mB_eWu22lH8mbVMO2Ji-12" target="4mB_eWu22lH8mbVMO2Ji-13">
          <mxGeometry width="50" height="50" relative="1" as="geometry">
            <mxPoint x="340" y="130" as="sourcePoint" />
            <mxPoint x="390" y="80" as="targetPoint" />
          </mxGeometry>
        </mxCell>
        <mxCell id="4mB_eWu22lH8mbVMO2Ji-25" value="" style="ellipse;whiteSpace=wrap;html=1;aspect=fixed;fillColor=#000000;" vertex="1" parent="1">
          <mxGeometry x="470" y="110" width="10" height="10" as="geometry" />
        </mxCell>
        <mxCell id="4mB_eWu22lH8mbVMO2Ji-27" value="" style="endArrow=classic;html=1;rounded=0;exitX=1;exitY=1;exitDx=0;exitDy=0;" edge="1" parent="1" source="4mB_eWu22lH8mbVMO2Ji-25">
          <mxGeometry width="50" height="50" relative="1" as="geometry">
            <mxPoint x="479" y="119" as="sourcePoint" />
            <mxPoint x="490" y="130" as="targetPoint" />
          </mxGeometry>
        </mxCell>
        <mxCell id="4mB_eWu22lH8mbVMO2Ji-28" value="Binary tree" style="text;html=1;strokeColor=none;fillColor=none;align=center;verticalAlign=middle;whiteSpace=wrap;rounded=0;rotation=40;fontSize=6;" vertex="1" parent="1">
          <mxGeometry x="470" y="100" width="30" height="10" as="geometry" />
        </mxCell>
        <mxCell id="4mB_eWu22lH8mbVMO2Ji-29" value="print tree()" style="rounded=0;whiteSpace=wrap;html=1;" vertex="1" parent="1">
          <mxGeometry x="520" y="280" width="120" height="60" as="geometry" />
        </mxCell>
        <mxCell id="4mB_eWu22lH8mbVMO2Ji-30" value="" style="endArrow=classic;html=1;rounded=0;entryX=0.477;entryY=-0.054;entryDx=0;entryDy=0;exitX=0.5;exitY=1;exitDx=0;exitDy=0;entryPerimeter=0;" edge="1" parent="1" source="4mB_eWu22lH8mbVMO2Ji-13" target="4mB_eWu22lH8mbVMO2Ji-29">
          <mxGeometry width="50" height="50" relative="1" as="geometry">
            <mxPoint x="430" y="100" as="sourcePoint" />
            <mxPoint x="510" y="170" as="targetPoint" />
          </mxGeometry>
        </mxCell>
        <mxCell id="4mB_eWu22lH8mbVMO2Ji-31" value="" style="ellipse;whiteSpace=wrap;html=1;aspect=fixed;fillColor=#000000;" vertex="1" parent="1">
          <mxGeometry x="560" y="240" width="10" height="10" as="geometry" />
        </mxCell>
        <mxCell id="4mB_eWu22lH8mbVMO2Ji-32" value="" style="endArrow=classic;html=1;rounded=0;exitX=1;exitY=1;exitDx=0;exitDy=0;" edge="1" parent="1" source="4mB_eWu22lH8mbVMO2Ji-31">
          <mxGeometry width="50" height="50" relative="1" as="geometry">
            <mxPoint x="569" y="249" as="sourcePoint" />
            <mxPoint x="580" y="260" as="targetPoint" />
          </mxGeometry>
        </mxCell>
        <mxCell id="4mB_eWu22lH8mbVMO2Ji-33" value="Binary tree" style="text;html=1;strokeColor=none;fillColor=none;align=center;verticalAlign=middle;whiteSpace=wrap;rounded=0;rotation=40;fontSize=6;" vertex="1" parent="1">
          <mxGeometry x="560" y="230" width="30" height="10" as="geometry" />
        </mxCell>
      </root>
    </mxGraphModel>
  </diagram>
</mxfile>
